<?xml version="1.0" encoding="utf-8"?>
<!-- Uploaded to: SVG Repo, www.svgrepo.com, Generator: SVG Repo Mixer Tools -->
<svg width="800px" height="800px" viewBox="0 -9.89 80.819 80.819" xmlns="http://www.w3.org/2000/svg">
  <g id="Group_116" data-name="Group 116" transform="translate(-314.973 -274.638)">
    <g id="Group_42" data-name="Group 42">
      <g id="Group_41" data-name="Group 41">
        <path id="Path_23" data-name="Path 23" d="M314.995,305.6l1.615,16.244a3.26,3.26,0,0,0,.628,1.526l.718,3.5a.973.973,0,0,0,.987.718,30.4,30.4,0,0,1,7.449,0h.18a.862.862,0,0,0,.808-.628l.718-3.321a3.59,3.59,0,0,0,.9-2.333l.359-19.116,2.513.359c-.09,3.68-.359,19.386.808,28.9h0c.18,1.346.359,2.513.539,3.59a.781.781,0,0,0,.9.628c.09,0,9.424-.9,21.181-.9s21.091.808,21.181.9h.09a.851.851,0,0,0,.808-.718,30.761,30.761,0,0,0,.538-3.59h0c1.167-9.513.9-25.219.808-28.9l2.513-.359.359,19.027a4.013,4.013,0,0,0,.808,2.244h0l.718,3.321a.862.862,0,0,0,.808.628h.179a30.239,30.239,0,0,1,7.449,0,.889.889,0,0,0,.987-.718l.718-3.5a2.341,2.341,0,0,0,.628-1.526l1.885-15.975a3.118,3.118,0,0,0-.539-2.154L383.652,284.6a2.475,2.475,0,0,0-1.167-.987l-4.757-2.154h0l-14-6.282a2.257,2.257,0,0,0-1.257-.538H362.2a2.344,2.344,0,0,0-1.8.9,11.406,11.406,0,0,1-10.052,0,2.341,2.341,0,0,0-1.8-.9h-.269a3.16,3.16,0,0,0-1.257.538l-14,6.282h0l-4.757,2.154a2.485,2.485,0,0,0-1.167.987l-11.577,18.847A3.02,3.02,0,0,0,314.995,305.6Zm47.747-28.63a8.423,8.423,0,0,1-1.167,3.321,7.435,7.435,0,0,1-12.386,0,8.436,8.436,0,0,1-1.167-3.321.594.594,0,0,1,.538-.628h.09a.517.517,0,0,1,.539.538,7.98,7.98,0,0,0,.987,2.782,5.841,5.841,0,0,0,5.2,2.782,5.569,5.569,0,0,0,5.2-2.782,7.365,7.365,0,0,0,1.077-2.872.58.58,0,0,1,.539-.539h.09A.62.62,0,0,1,362.742,276.969Zm-7.36,1.346a14.881,14.881,0,0,0,4.308-.718,4.4,4.4,0,0,1-.538,1.167,4.051,4.051,0,0,1-3.77,1.974,3.959,3.959,0,0,1-3.769-1.974,3.413,3.413,0,0,1-.539-1.167A14.881,14.881,0,0,0,355.382,278.315Zm20.912,4.308a28.135,28.135,0,0,0-2.064,12.924c.359,3.41,1.167,5.654,2.423,6.641.18.09.269.18.449.269.09,3.321.359,18.488-.718,28-2.6-.18-10.949-.808-21.091-.808s-18.488.628-21.091.808c-1.077-9.513-.718-24.681-.718-28,.18-.09.269-.18.449-.269,1.257-.987,2.064-3.141,2.423-6.641.628-5.475-1.257-10.86-2.064-12.924l11.847-5.3a10.656,10.656,0,0,0,1.436,3.77,8.63,8.63,0,0,0,7.718,4.128,8.73,8.73,0,0,0,7.718-4.128,10.649,10.649,0,0,0,1.436-3.77Zm17.77,22.8-1.615,16.245a.329.329,0,0,1-.09.269,17.494,17.494,0,0,0-8.706.09,2.61,2.61,0,0,1-.18-.808l-.359-20.014V289.534a.9.9,0,1,0-1.794,0v10.949l-3.41.449c-.18-.09-1.436-.628-1.974-5.564a28,28,0,0,1,1.885-12.026l3.949,1.8a.7.7,0,0,1,.359.359l11.578,18.847A1.572,1.572,0,0,1,394.064,305.419ZM384.909,325.7l-.538-2.154a16.013,16.013,0,0,1,7.27,0l-.359,2.154A36.838,36.838,0,0,0,384.909,325.7Zm-50.169,8.257c-.09-.539-.18-1.167-.269-1.8,2.6-.18,10.86-.808,20.911-.808s18.219.628,20.911.808c-.09.628-.179,1.257-.269,1.8-2.513-.18-10.68-.808-20.642-.808S337.253,333.69,334.74,333.959ZM319.483,325.7l-.449-2.154a16.116,16.116,0,0,1,7.27,0l-.449,2.154A36.825,36.825,0,0,0,319.483,325.7ZM316.7,305.419a2.136,2.136,0,0,1,.269-1.077l11.578-18.847c.09-.18.269-.269.359-.359l3.949-1.8a28.023,28.023,0,0,1,1.885,12.026c-.538,4.936-1.8,5.475-1.974,5.564l-3.41-.449V289.533a.9.9,0,0,0-.9-.9.848.848,0,0,0-.9.9V301.2l-.359,20.014a2.622,2.622,0,0,1-.18.808,17.494,17.494,0,0,0-8.706-.09c0-.09-.09-.18-.09-.269Z" fill="#1e1e1c"/>
      </g>
    </g>
  </g>
</svg>