<?xml version="1.0" encoding="iso-8859-1"?>
<!-- Uploaded to: SVG Repo, www.svgrepo.com, Generator: SVG Repo Mixer Tools -->
<svg fill="#000000" height="800px" width="800px" version="1.1" id="Layer_1" xmlns="http://www.w3.org/2000/svg" xmlns:xlink="http://www.w3.org/1999/xlink" 
	 viewBox="0 0 512 512" xml:space="preserve">
<g transform="translate(1 1)">
	<g>
		<path d="M382.362,48.435c-0.545-5.324-3.548-9.945-7.894-12.678v-19.69C374.467,6.643,366.824-1,357.401-1h-204.8
			c-9.423,0-17.067,7.643-17.067,17.067v19.693c-5.086,3.2-8.362,8.985-7.979,15.456l24.576,409.607
			c0.371,6.117,3.934,11.311,9.003,14.024v19.086c0,9.423,7.643,17.067,17.067,17.067h34.133c9.423,0,17.067-7.643,17.067-17.067
			v-19.224c5.082-2.83,8.583-8.174,8.778-14.385l7.834-264.814c0.128-4.893,4.117-8.777,8.989-8.777c4.87,0,8.853,3.881,8.98,8.747
			l7.843,264.828c0.184,6.218,3.688,11.567,8.775,14.4v19.225c0,9.423,7.643,17.067,17.067,17.067h34.133
			c9.423,0,17.067-7.643,17.067-17.067v-19.085c5.067-2.712,8.627-7.906,8.997-14.02l19.431-323.855
			c0.001-0.01,0.003-0.019,0.004-0.03l5.146-85.717C382.501,50.277,382.457,49.349,382.362,48.435z M361.153,121.069
			c-12.974-11.133-20.821-27.5-20.821-45.266v-25.6h25.071c0.001,0-0.312,5.231-0.768,12.844L361.153,121.069z M144.592,50.203
			c0,0.003,25.078-0.001,25.078-0.001v25.6c0,17.768-7.848,34.135-20.824,45.268L144.592,50.203z M152.601,16.067h204.8v17.067
			h-204.8V16.067z M212.334,493.933h-34.133v-17.067h34.133V493.933z M331.801,493.933h-34.133v-17.067h34.133V493.933z
			 M340.829,459.8h-0.495h-51.2h-0.246c-0.002,0-7.846-264.794-7.846-264.794c-0.367-14.085-11.918-25.339-26.04-25.339
			c-14.123,0-25.681,11.254-26.049,25.369l-7.833,264.768c0,0-0.07,0-0.193-0.001c-0.02,0-0.04-0.003-0.06-0.003h-10.263
			c-15.179-0.002-41.43,0-41.43,0c-0.002,0-11.878-197.883-19.12-318.567c22.501-13.8,36.682-38.351,36.682-65.431V50.202
			c12.402,0,26.695,0,41.684,0c-0.04,0.033-0.082,0.064-0.123,0.097c-5.433,4.398-10.142,8.7-13.938,12.864
			c-6.78,7.437-10.644,14.282-10.558,21.275c0.058,4.712,3.925,8.486,8.637,8.428c4.712-0.058,8.486-3.925,8.428-8.637
			c-0.018-1.488,2.004-5.069,6.106-9.569c3.145-3.451,7.248-7.198,12.064-11.096c4.289-3.472,8.899-6.87,13.526-10.055
			c2.623,3.729,5.493,7.435,8.573,10.948c10.742,12.251,21.746,19.855,33.492,20.067c1.455,0.026,2.903-0.069,4.337-0.289
			c4.658-0.716,7.853-5.073,7.137-9.731c-0.716-4.658-5.073-7.853-9.731-7.137c-0.465,0.071-0.941,0.103-1.435,0.094
			c-5.579-0.101-13.136-5.323-20.968-14.255c-0.859-0.98-1.698-1.985-2.524-3.004c18.645,0,36.648,0,51.822-0.001v25.602
			c0,27.078,14.18,51.627,36.678,65.428L340.829,459.8z"/>
	</g>
</g>
</svg>