<?xml version="1.0" encoding="iso-8859-1"?>
<!-- Uploaded to: SVG Repo, www.svgrepo.com, Generator: SVG Repo Mixer Tools -->
<svg fill="#000000" height="800px" width="800px" version="1.1" id="Layer_1" xmlns="http://www.w3.org/2000/svg" xmlns:xlink="http://www.w3.org/1999/xlink" 
	 viewBox="0 0 512.003 512.003" xml:space="preserve">
<g>
	<g>
		<g>
			<path d="M511.995,311.319c-0.001-1.212-0.257-2.438-0.797-3.596c-10.411-22.374-49.374-30.396-98.697-40.559
				c-23.603-4.859-49.653-10.231-75.115-17.765c1.097-3.02,0.445-6.536-1.973-8.955c-3.336-3.328-8.738-3.328-12.066,0l-3.392,3.393
				c-4.693-1.616-9.339-3.323-13.921-5.129c1.72-3.229,1.223-7.328-1.494-10.045c-3.336-3.336-8.738-3.336-12.075,0l-2.931,2.931
				c-4.205-1.982-8.331-4.064-12.353-6.265c2.678-3.346,2.468-8.241-0.639-11.348c-3.328-3.328-8.73-3.328-12.066,0l-2.28,2.28
				c-6.197-4.163-12.06-8.672-17.502-13.576c-0.307-0.29-0.64-0.555-0.998-0.802c-0.273-0.188-27.401-19.157-30.131-55.185
				c-0.648-8.226-7.228-14.43-15.326-14.43H40.986c-8.482,0-15.386,6.903-15.386,15.386c0,31.71-5.521,64.401-16.418,97.161
				C1.092,269.16,0,296.492,0,320.002c0,0.128,0.013,0.254,0.019,0.381c-0.004,0.109-0.016,0.216-0.016,0.327v41.737
				c0,4.642,3.712,8.431,8.346,8.533c2.065,0.043,207.309,4.548,339.072,8.533c4.975,0.145,9.813,0.222,14.515,0.222
				c73.122,0,113.399-17.536,134.579-32.785c14.379-10.342,15.488-21.231,15.488-35.482
				C512.003,311.417,511.996,311.369,511.995,311.319z M25.387,250.199c11.273-33.92,17.092-67.84,17.271-100.864h153.993
				c3.567,39.561,30.771,61.722,36.42,65.929c0.29,0.273,0.597,0.521,0.913,0.742c5.036,4.483,10.378,8.635,15.945,12.522
				l-13.119,13.119c-3.336,3.328-3.336,8.73,0,12.066c1.664,1.664,3.849,2.5,6.033,2.5s4.369-0.836,6.033-2.5l15.82-15.821
				c3.938,2.269,7.959,4.429,12.057,6.481l-9.719,9.719c-3.337,3.337-3.337,8.73,0,12.066c1.664,1.664,3.849,2.5,6.033,2.5
				c2.185,0,4.369-0.836,6.033-2.5l14.198-14.193c4.378,1.84,8.81,3.589,13.287,5.244l-10.392,10.396
				c-3.337,3.337-3.337,8.738,0,12.066c1.664,1.664,3.849,2.5,6.033,2.5c2.185,0,4.369-0.836,6.033-2.5l16.318-16.323
				c28.597,9.021,58.026,15.087,84.485,20.532c34.099,7.023,66.62,13.722,80.572,24.141c-22.929,7.876-94.558,24.149-275.721,11.861
				c-108.075-7.339-169.523-8.457-196.787-8.457C17.417,291.415,18.987,269.442,25.387,250.199z M486.556,333.1
				c-20.412,14.677-61.082,31.676-138.624,29.355c-116.668-3.524-290.918-7.467-330.863-8.354v-25.614
				c26.935-0.016,87.94,1.105,195.692,8.42c47.198,3.2,87.168,4.497,120.934,4.497c93.441,0,139.418-9.912,160.009-16.742
				C492.601,327.818,490.512,330.246,486.556,333.1z"/>
			<path d="M119.468,174.934c-28.237,0-51.2,22.963-51.2,51.2c0,28.237,22.963,51.2,51.2,51.2s51.2-22.963,51.2-51.2
				C170.668,197.897,147.705,174.934,119.468,174.934z M119.468,260.268c-18.825,0-34.133-15.309-34.133-34.133
				c0-18.825,15.309-34.133,34.133-34.133s34.133,15.309,34.133,34.133C153.602,244.959,138.293,260.268,119.468,260.268z"/>
			<path d="M128.002,217.601h-17.067c-4.719,0-8.533,3.823-8.533,8.533c0,4.71,3.814,8.533,8.533,8.533h17.067
				c4.719,0,8.533-3.823,8.533-8.533C136.535,221.424,132.721,217.601,128.002,217.601z"/>
		</g>
	</g>
</g>
</svg>