<?xml version="1.0" encoding="iso-8859-1"?>
<!-- Uploaded to: SVG Repo, www.svgrepo.com, Generator: SVG Repo Mixer Tools -->
<!DOCTYPE svg PUBLIC "-//W3C//DTD SVG 1.1//EN" "http://www.w3.org/Graphics/SVG/1.1/DTD/svg11.dtd">
<svg fill="#000000" height="800px" width="800px" version="1.1" id="Capa_1" xmlns="http://www.w3.org/2000/svg" xmlns:xlink="http://www.w3.org/1999/xlink" 
	 viewBox="0 0 403.08 403.08" xml:space="preserve">
<g>
	<g>
		<path d="M276.824,114.003h-45.813c-2.761,0-5,2.239-5,5v40.34c0,1.946,1.13,3.716,2.896,4.536l22.906,10.629
			c0.681,0.316,1.396,0.466,2.101,0.465c0.732,0,1.45-0.165,2.106-0.469l0.002,0.004l22.906-10.629
			c1.766-0.82,2.896-2.59,2.896-4.536v-40.34C281.824,116.243,279.585,114.003,276.824,114.003z M271.824,156.151l-17.906,8.31
			l-17.906-8.31v-32.147h35.813V156.151z"/>
		<path d="M381.85,294.836c-1.332-25.154-43.485-186.223-46.997-201.773c-3.259-14.434-8.586-25.254-16.934-33.79
			c-0.078-0.096-20.38-16.735-68.643-37.23l-12.004-19.65c-0.939-1.539-2.622-2.425-4.382-2.385V0h-31.352h-31.352v0.008
			c-1.761-0.04-3.442,0.846-4.382,2.385l-12.004,19.65C103.407,43.66,85.241,59.175,85.163,59.27
			c-8.35,8.536-12.668,16.535-16.938,33.794c-3.828,15.475-45.665,176.618-46.997,201.772c-1.889,35.73,2.837,68.489,3.239,71.188
			l2.059,22.068c0.24,2.57,2.397,4.535,4.978,4.535h32.068c2.335,0,4.36-1.617,4.876-3.895l4.877-21.508
			c0.957-1.756,3.592-6.774,6.563-14.012l-0.161,14.732c-0.036,1.361,0.262,6.006,5.298,11.41
			c10.085,10.822,38.485,23.724,116.512,23.724c78.028,0,106.428-12.901,116.512-23.724c5.036-5.404,5.333-10.049,5.297-11.41
			l-0.16-14.736c2.972,7.24,5.607,12.26,6.564,14.016l4.877,21.508c0.517,2.277,2.541,3.895,4.876,3.895h32.068
			c2.581,0,4.739-1.965,4.978-4.535l2.058-22.068C379.013,363.326,383.74,330.567,381.85,294.836z M234.684,17.338l5.968,9.769
			c-2.74,17.397-14.977,31.869-21.26,38.307l-10.592-13.362C223.534,41.206,231.016,27.119,234.684,17.338z M201.539,10h25.072
			c-2.58,8.322-9.269,23.907-25.071,34.939C185.826,33.956,179.098,18.337,176.489,10H201.539z M168.394,17.338
			c3.667,9.78,11.15,23.868,25.885,34.713l-10.596,13.37c-6.281-6.417-18.509-20.854-21.256-38.314L168.394,17.338z M59.581,382.628
			h-23.52l-1.138-12.199h27.424L59.581,382.628z M65.594,360.428H33.809c-1.264-10.136-4.079-36.969-2.593-65.064
			c1.277-24.135,43.216-184.383,46.765-200.098c2.335-10.347,5.633-18.28,10.561-24.736c1.658,3.819,2.618,9.135,2.675,15.228
			c0.001,0.12,0.004,62.871,0.004,62.871L80.327,314.682C77.361,335.713,68.889,353.934,65.594,360.428z M89.728,368.108
			l0.575-52.721l10.907-166.266c0.007-0.109,0.009-63.236,0.008-63.27c0,0,0.424-14.808-5.377-22.895
			c25.306-15.718,48.02-25.694,57.592-29.866c5.894,24.951,26.579,42.746,27.537,43.541c2.667,2.213,5.127,1.598,7.149-0.71
			l8.419-10.622V393.06c-53.799-0.401-80.152-7.255-92.836-13.033C90.825,374.161,89.728,368.11,89.728,368.108z M313.35,368.116
			c-0.065,0.482-1.097,6.045-13.975,11.911c-12.683,5.778-39.037,12.632-92.836,13.033V65.298l8.421,10.623
			c2.264,2.781,5.481,2.308,7.149,0.71c0.9-0.862,21.643-18.59,27.536-43.541c21.167,8.632,54.719,27.476,57.594,29.867
			c-4.473,7.179-5.319,16.91-5.377,22.693c0,0-0.001,63.361,0.006,63.471l10.909,166.266l0.573,52.72
			C313.35,368.11,313.35,368.113,313.35,368.116z M367.019,382.628h-23.52l-2.766-12.199h27.423L367.019,382.628z M369.269,360.428
			h-31.783c-3.297-6.496-11.767-24.716-14.734-45.746l-10.895-166.053c0,0,0.003-62.754,0.004-62.878
			c0.061-6.089,1.022-11.402,2.677-15.219c4.926,6.456,8.224,14.388,10.56,24.734c3.549,15.715,45.488,175.963,46.765,200.098
			C373.348,323.428,370.532,350.286,369.269,360.428z"/>
	</g>
</g>
</svg>