<!DOCTYPE svg PUBLIC "-//W3C//DTD SVG 1.1//EN" "http://www.w3.org/Graphics/SVG/1.1/DTD/svg11.dtd">
<!-- Uploaded to: SVG Repo, www.svgrepo.com, Transformed by: SVG Repo Mixer Tools -->
<svg fill="#ffffff" version="1.1" id="Capa_1" xmlns="http://www.w3.org/2000/svg" xmlns:xlink="http://www.w3.org/1999/xlink" width="800px" height="800px" viewBox="-35.51 -35.51 514.95 514.95" xml:space="preserve" stroke="#ffffff" transform="rotate(0)">
<g id="SVGRepo_bgCarrier" stroke-width="0"/>
<g id="SVGRepo_tracerCarrier" stroke-linecap="round" stroke-linejoin="round" stroke="#000000" stroke-width="31.075309999999995"> <g> <g> <path d="M262.809,146.572c13.473-9.5,29.707-14.421,46.622-16.832c16.595-2.362,11.649-27.901-4.925-25.537 c-29.282,4.166-56.333,15.843-75.388,38.54C107.466,133.672,5.155,177.126,0.176,240.228 c-2.376,30.119,19.468,39.152,56.152,41.368v58.288H379.93v-32.829c37.657,3.928,61.405-1.218,63.813-31.847 C448.312,217.381,369.559,163.05,262.809,146.572z"/> </g> </g> </g>
<g id="SVGRepo_iconCarrier"> <g> <g> <path d="M262.809,146.572c13.473-9.5,29.707-14.421,46.622-16.832c16.595-2.362,11.649-27.901-4.925-25.537 c-29.282,4.166-56.333,15.843-75.388,38.54C107.466,133.672,5.155,177.126,0.176,240.228 c-2.376,30.119,19.468,39.152,56.152,41.368v58.288H379.93v-32.829c37.657,3.928,61.405-1.218,63.813-31.847 C448.312,217.381,369.559,163.05,262.809,146.572z"/> </g> </g> </g>
</svg>