<!DOCTYPE svg PUBLIC "-//W3C//DTD SVG 1.1//EN" "http://www.w3.org/Graphics/SVG/1.1/DTD/svg11.dtd">
<!-- Uploaded to: SVG Repo, www.svgrepo.com, Transformed by: SVG Repo Mixer Tools -->
<svg fill="#000000" height="800px" width="800px" version="1.1" id="Capa_1" xmlns="http://www.w3.org/2000/svg" xmlns:xlink="http://www.w3.org/1999/xlink" viewBox="0 0 385.088 385.088" xml:space="preserve" stroke="#000000" stroke-width="2.6956160000000002">
<g id="SVGRepo_bgCarrier" stroke-width="0"/>
<g id="SVGRepo_tracerCarrier" stroke-linecap="round" stroke-linejoin="round"/>
<g id="SVGRepo_iconCarrier"> <path d="M276.374,29.227V5c0-2.762-2.238-5-5-5H113.726c-2.762,0-5,2.238-5,5v24.211c-5.19,7.892-26.669,47.063-19.904,146.281 c7.387,108.322,14.869,191.769,14.944,192.599c0.166,1.849,1.343,3.453,3.057,4.167c1.257,0.524,31.416,12.83,85.722,12.83 c13.643,0,26.972-0.792,39.615-2.354l-0.002-0.017c2.193-0.271,4.024-1.966,4.342-4.26c0.085-0.612,5.74-41.533,10.381-80.3 c1.429,21.255,2.639,47.566,2.639,75.741c0,2.761,2.236,4.998,4.997,5v0.001c2.656-0.098,23.427-6.506,23.75-6.641 c1.714-0.714,2.891-2.318,3.057-4.167c0.075-0.83,7.56-84.276,14.944-192.599C303.027,76.335,281.58,37.152,276.374,29.227z M118.726,10h147.648v17.392c-7.965,1.405-33.454,3.09-73.824,3.09s-65.859-1.685-73.824-3.09V10z M286.29,174.813 c-6.572,96.392-13.222,173.056-14.647,189.234c-2.469,0.852-6.553,2.148-12.144,3.551c-0.415-66.34-7.209-120.939-7.279-121.501 c-0.316-2.505-2.447-4.374-4.959-4.374c-0.041,0-0.083,0-0.124,0.002c-2.566,0.063-4.667,2.058-4.863,4.616 c-2.624,34.243-12.729,109.148-15.154,126.907c-11.098,1.219-22.706,1.84-34.575,1.84c-43.021,0-70.621-8.141-79.099-11.047 c-1.428-16.193-8.075-92.85-14.647-189.228c-6.014-88.217,11.027-127.197,16.938-137.82c1.185,0.248,13.406,1.666,20.779,2.104 c14.983,0.894,34.884,1.385,56.034,1.385s41.051-0.491,56.034-1.385c7.373-0.438,19.614-1.859,20.809-2.11 C275.326,47.473,292.346,85.989,286.29,174.813z"/> </g>
</svg>