<?xml version="1.0" encoding="iso-8859-1"?>
<!-- Uploaded to: SVG Repo, www.svgrepo.com, Generator: SVG Repo Mixer Tools -->
<svg fill="#000000" height="800px" width="800px" version="1.1" id="Layer_1" xmlns="http://www.w3.org/2000/svg" xmlns:xlink="http://www.w3.org/1999/xlink" 
	 viewBox="0 0 503.776 503.776" xml:space="preserve">
<g>
	<g>
		<path d="M489.163,296.588c-10.536-3.284-25.179-5.483-44.587-6.438c-5.407-0.267-10.526-0.263-16.917-0.007
			c1.888-5.937,3.977-12.518,4.278-13.402c4.015-11.886-2.035-24.766-13.758-29.169l-40.973-15.362
			c-11.672-4.387-24.732,1.291-29.49,12.825L327.26,294.52c-14.883-0.096-29.01-0.732-43.16-2.023
			c-22.737-2.075-43.046-5.801-60.646-11.334l70.444-68.354c11.115-10.783,10.561-28.796-1.196-38.877l-26.449-22.671
			c-13.15-11.263-32.541-11.263-45.688-0.002l-79.595,68.23c-22.876-18.639-53.64-36.23-92.718-49.933
			c-12.395-4.336-25.988,2.235-30.137,14.684c-3.309,9.914,0.313,20.788,8.931,26.699c28.816,19.713,61.488,47.964,82.442,74.473
			c-14.048-0.009-28.175-0.014-41.356-0.013c-13.56,0.001-25.268,0.01-34.573,0.026C15.03,285.423,0,300.454,0,318.997
			c0,18.544,15.03,33.574,33.574,33.574h100.721c27.064,0,54.131,1.394,84.754,4.204c32.017,2.931,76.859,4.19,124.612,4.19
			c53.659,0,114.808-10.686,147.596-25.285C508.876,327.835,507.642,302.341,489.163,296.588z M363.232,251.444
			c1.304-3.162,4.881-4.717,8.075-3.517l40.975,15.362c3.218,1.208,4.878,4.744,3.757,8.063c-0.471,1.383-4.351,13.643-6.33,19.831
			c-1.454,0.093-2.617,0.166-3.763,0.236c-2.029,0.123-15.471,0.977-19.897,1.242c-0.784,0.047-1.542,0.089-2.316,0.135
			c-1.354,0.079-2.707,0.158-4.042,0.231c-0.764,0.042-1.516,0.083-2.272,0.123c-1.719,0.092-3.427,0.181-5.116,0.265
			c-0.364,0.018-0.731,0.037-1.093,0.055c-4.163,0.202-8.229,0.375-12.223,0.521c-1.072,0.039-2.141,0.076-3.204,0.11
			c-0.417,0.014-0.831,0.026-1.247,0.039c-3.042,0.094-6.053,0.171-9.049,0.228L363.232,251.444z M231.489,164.005
			c6.86-5.876,16.98-5.876,23.843,0.002l26.445,22.669c4.257,3.65,4.458,10.179,0.432,14.084l-76.113,73.855
			c-4.417-1.896-8.439-3.838-12.139-5.875c-1.257-0.702-2.504-1.41-3.715-2.143c-0.007-0.004-0.015-0.009-0.022-0.013
			c-7.135-4.329-13.758-10.346-20.252-18.099c-0.464-0.554-0.928-1.093-1.391-1.664c-0.023-0.028-0.047-0.057-0.07-0.085
			c-0.503-0.621-1.024-1.25-1.561-1.887c-3.945-4.718-8.36-9.448-13.262-14.149L231.489,164.005z M484.43,320.344
			c-30.421,13.545-89.297,23.834-140.769,23.834c-47.28,0-91.699-1.247-123.08-4.12c-31.104-2.854-58.674-4.274-86.286-4.274H33.574
			c-9.272,0-16.787-7.515-16.787-16.787c0-9.272,7.515-16.787,16.787-16.787c9.31-0.016,21.01-0.024,34.561-0.026
			c13.176-0.001,27.299,0.004,41.321,0.013c7.019,0.005,7.019,0.005,11.942,0.009c3.682,0.003,3.682,0.003,4.495,0.004
			c6.661,0.007,10.675-7.375,7.049-12.963c-20.885-32.18-61.152-68.041-96.409-92.16c-2.42-1.66-3.437-4.712-2.493-7.538
			c1.174-3.522,5.075-5.408,8.664-4.152c39.426,13.825,69.682,31.641,91.326,50.138c0.378,0.525,0.819,1.018,1.332,1.462
			c8.466,7.314,15.301,14.37,20.164,20.381c0.653,0.806,1.312,1.576,1.97,2.354c7.488,8.864,15.315,15.928,24.027,21.209
			c0.011,0.007,0.024,0.013,0.035,0.02c1.233,0.746,2.503,1.473,3.791,2.19c25.259,14.214,58.049,22.486,97.227,26.061
			c23.32,2.128,46.428,2.542,72.644,1.703c0.302-0.009,0.605-0.019,0.907-0.029c0.944-0.031,1.884-0.061,2.837-0.095
			c1.996-0.071,4.013-0.15,6.048-0.235c0.067-0.003,0.133-0.005,0.199-0.008c4.474-0.189,9.061-0.413,13.815-0.672
			c0.327-0.018,0.655-0.036,0.983-0.054c1.87-0.103,3.772-0.213,5.699-0.326c0.429-0.025,0.845-0.047,1.275-0.073
			c4.422-0.264,17.869-1.118,19.982-1.245c1.731-0.105,3.143-0.196,6.073-0.388c0.083-0.005,0.174-0.011,0.283-0.018
			c1.579-0.102,1.579-0.102,3.154-0.203c0.016-0.001,0.031-0.006,0.048-0.007c12.381-0.8,19.595-1.023,27.227-0.646
			c18.104,0.89,31.403,2.887,40.42,5.698C487.76,313.733,488.003,318.753,484.43,320.344z"/>
	</g>
</g>
</svg>