<?xml version="1.0" encoding="utf-8"?>
<!-- Uploaded to: SVG Repo, www.svgrepo.com, Generator: SVG Repo Mixer Tools -->
<svg width="800px" height="800px" viewBox="0 -6.02 84.477 84.477" xmlns="http://www.w3.org/2000/svg">
  <g id="Group_121" data-name="Group 121" transform="translate(-567.201 -160.411)">
    <g id="Group_22" data-name="Group 22">
      <g id="Group_21" data-name="Group 21">
        <g id="Group_18" data-name="Group 18">
          <path id="Path_10" data-name="Path 10" d="M651.049,199.092l-12.116-19.655a3.352,3.352,0,0,0-1.167-1.077l-4.936-2.244h0l-9.154-4.128a5.5,5.5,0,0,0-1.974-5.654,4.7,4.7,0,0,0-2.962-4.757l-.539-.269a33.309,33.309,0,0,0-8.436-.9,32.327,32.327,0,0,0-8.975,1.077,3.055,3.055,0,0,0-.539.269h-.179a4.81,4.81,0,0,0-2.872,4.4c-1.167.718-2.423,2.513-1.885,5.654l-9.334,4.128h0l-4.936,2.244a2.721,2.721,0,0,0-1.167,1.077l-12.116,19.834a3.247,3.247,0,0,0-.539,2.244l1.615,17.052a2.439,2.439,0,0,0,.718,1.526l.718,3.68a.889.889,0,0,0,.987.718,33.409,33.409,0,0,1,7.808,0h.18a.873.873,0,0,0,.9-.718l.808-3.411h0a3.777,3.777,0,0,0,.9-2.333l.359-19.924,2.693.359c-.09,3.859-.359,20.283.808,30.156h0a34.873,34.873,0,0,0,.628,3.68.972.972,0,0,0,.987.718c.09,0,9.783-.9,22.168-.9,12.295,0,22.078.9,22.168.9h.09a.874.874,0,0,0,.9-.718,34.579,34.579,0,0,0,.628-3.68h0c1.257-9.962.9-26.3.808-30.156l2.6-.359.359,19.924a4.025,4.025,0,0,0,.9,2.423l.808,3.41a.874.874,0,0,0,.9.718h.18a33.63,33.63,0,0,1,7.808,0,.888.888,0,0,0,.987-.718l.718-3.68a3.418,3.418,0,0,0,.718-1.526l1.615-17.052A4.159,4.159,0,0,0,651.049,199.092Zm-41.285-36.8a33.387,33.387,0,0,1,7.9.808,41,41,0,0,0-7.629,9.6,34.93,34.93,0,0,0-8.706-9.424A32.018,32.018,0,0,1,609.764,162.295Zm-13.821,11.4a4.279,4.279,0,0,0,2.064,1.257c.09,0,.18.09.269.09a.862.862,0,0,0,.808-.628.934.934,0,0,0-.538-1.167c-.987-.359-1.346-.718-1.346-.808v-.18c-.987-3.59.987-4.487,1.256-4.577a.9.9,0,0,0,.539-.987,2.615,2.615,0,0,1,.808-2.513,1.08,1.08,0,0,0,.449.449,35.081,35.081,0,0,1,9.065,10.321v.09a11.224,11.224,0,0,1,.9,1.795.862.862,0,0,0,.808.538.538.538,0,0,0,.359-.09.891.891,0,0,0,.449-1.167c-.269-.538-.449-1.077-.718-1.526a35.235,35.235,0,0,1,7.808-10.142l.269-.269a3.144,3.144,0,0,1,.628,2.6,1.1,1.1,0,0,0,.449.9,3.663,3.663,0,0,1,1.436,4.4l-.359.359a2.36,2.36,0,0,1-1.257.808.851.851,0,0,0-.628,1.077.874.874,0,0,0,.9.718h.269a3.87,3.87,0,0,0,2.064-1.257l.09-.09,8.526,3.769c-.808,2.064-2.782,7.718-2.154,13.462.449,3.59,1.256,5.923,2.513,6.911.18.09.359.269.449.269.09,3.41.359,19.3-.718,29.258-.9-.09-2.423-.179-4.487-.359,0-.09.09-.18.09-.359v-8.706a.848.848,0,0,0-.9-.9,6.435,6.435,0,0,1-6.462-6.462,2.222,2.222,0,0,0-2.244-2.244H602.767a2.222,2.222,0,0,0-2.244,2.244,6.435,6.435,0,0,1-6.462,6.462.848.848,0,0,0-.9.9v8.706a.328.328,0,0,0,.09.269c-2.693.18-4.667.359-5.744.449-1.077-9.872-.808-25.758-.718-29.258.18-.09.269-.18.449-.269,1.256-.987,2.154-3.321,2.513-6.911a29.068,29.068,0,0,0-2.154-13.462Zm29.348,53.221c-4.128-.269-9.693-.449-15.885-.449-5.564,0-10.59.179-14.539.359v-7.988a8.277,8.277,0,0,0,7.359-8.257.425.425,0,0,1,.449-.449H617.3a.424.424,0,0,1,.449.449,8.343,8.343,0,0,0,7.359,8.257v7.808C625.291,226.734,625.291,226.824,625.291,226.914Zm-56-26.835L581.4,180.424a.894.894,0,0,1,.449-.359l4.129-1.885a27.349,27.349,0,0,1,1.974,12.565c-.538,5.116-1.885,5.744-2.064,5.834l-3.59-.449v-7.808a.9.9,0,0,0-1.8,0v8.616l-.359,20.911a2.65,2.65,0,0,1-.179.808,18.9,18.9,0,0,0-9.065-.09c0-.09-.09-.179-.09-.269l-1.795-17.142A2.127,2.127,0,0,1,569.288,200.079Zm2.6,22.347-.449-2.244a16.339,16.339,0,0,1,7.629,0l-.539,2.244A26.882,26.882,0,0,0,571.89,222.426Zm37.515,7.719c-10.411,0-18.937.628-21.54.808q-.135-.807-.269-1.885c2.782-.269,11.308-.9,21.809-.9s19.116.628,21.809.9q-.135.942-.269,1.885C628.342,230.773,619.816,230.145,609.405,230.145Zm30.874-7.719-.539-2.244a16.389,16.389,0,0,1,7.629,0l-.449,2.244A26.881,26.881,0,0,0,640.279,222.426Zm7.9-4.218a.329.329,0,0,1-.09.269,17.845,17.845,0,0,0-9.065.09,2.609,2.609,0,0,1-.18-.808l-.359-20.911v-8.616a.9.9,0,0,0-1.795,0v7.808l-3.59.449c-.179-.09-1.526-.718-2.064-5.834-.628-5.205,1.167-10.5,1.974-12.565l4.128,1.885a.894.894,0,0,1,.449.359L649.7,199.989a2.479,2.479,0,0,1,.269,1.167Z" fill="#1e1e1c"/>
        </g>
        <g id="Group_19" data-name="Group 19">
          <path id="Path_11" data-name="Path 11" d="M603.751,191.373a1.445,1.445,0,0,0,.539-1.885,1.6,1.6,0,0,0-.359-.449c0-.09.09-.179.09-.269V176.205a.9.9,0,1,0-1.795,0V188.77a.328.328,0,0,0,.09.269,1.393,1.393,0,0,0-.359,1.795A1.186,1.186,0,0,0,603.751,191.373Z" fill="#1e1e1c"/>
        </g>
        <g id="Group_20" data-name="Group 20">
          <path id="Path_12" data-name="Path 12" d="M617.752,191.373a1.444,1.444,0,0,0,.539-1.885,1.6,1.6,0,0,0-.359-.449c0-.09.09-.179.09-.269V176.205a.9.9,0,1,0-1.795,0V188.77a.328.328,0,0,0,.09.269,1.393,1.393,0,0,0-.359,1.795A1.17,1.17,0,0,0,617.752,191.373Z" fill="#1e1e1c"/>
        </g>
      </g>
    </g>
  </g>
</svg>