<?xml version="1.0" encoding="iso-8859-1"?>
<!-- Uploaded to: SVG Repo, www.svgrepo.com, Generator: SVG Repo Mixer Tools -->
<!DOCTYPE svg PUBLIC "-//W3C//DTD SVG 1.1//EN" "http://www.w3.org/Graphics/SVG/1.1/DTD/svg11.dtd">
<svg fill="#000000" height="800px" width="800px" version="1.1" id="Capa_1" xmlns="http://www.w3.org/2000/svg" xmlns:xlink="http://www.w3.org/1999/xlink" 
	 viewBox="0 0 423.305 423.305" xml:space="preserve">
<path d="M305.261,103.393c-0.965-83.488-7.805-99.007-7.978-99.666C296.704,1.531,294.72,0,292.448,0H130.86
	c-2.271,0-4.257,1.531-4.835,3.727c-0.183,0.695-4.521,17.967-7.98,99.665c-0.004,0.107,6.997,315.023,6.997,315.023
	c0.06,2.717,2.28,4.889,4.998,4.889h66.359c2.707,0,4.922-2.154,4.998-4.859l6.998-248.612c0.229-5.599,1.18-17.927,3.258-28.694
	c2.079,10.761,3.029,23.074,3.256,28.631l7,248.675c0.076,2.705,2.291,4.859,4.998,4.859h66.359c2.717,0,4.938-2.172,4.998-4.889
	C298.265,418.416,305.263,103.5,305.261,103.393z M134.996,10h36.274v9.062h-37.505C134.252,14.93,134.673,11.997,134.996,10z
	 M132.705,29.062h14.611c-0.688,10.121-3.529,17.623-8.494,22.318c-2.78,2.629-5.794,3.95-8.254,4.619
	C131.315,44.782,132.043,35.957,132.705,29.062z M206.653,122.864c-6.888,14.778-8.196,45.243-8.252,46.625l-6.863,243.815H134.93
	l-6.888-309.65c0.611-14.401,1.246-26.749,1.876-37.33c4.148-0.647,10.175-2.474,15.586-7.502c7.08-6.58,11.034-16.588,11.82-29.761
	h13.945v0.797c0,2.761,2.238,5,5,5s5-2.239,5-5v-0.797h25.383V122.864z M206.653,19.062H181.27V10h25.383V19.062z M293.052,56.007
	c-2.435-0.654-5.435-1.947-8.193-4.51c-5.043-4.687-7.932-12.224-8.625-22.436h15.1C291.855,35.377,292.411,43.955,293.052,56.007z
	 M252.034,10h36.578c0.609,2.338,1.156,4.807,1.707,9.062h-38.285V10z M242.034,10v9.062h-17.12c0.538-0.246,1.038-0.574,1.459-1
	c0.93-0.93,1.46-2.21,1.46-3.53s-0.53-2.61-1.46-3.54c-0.421-0.421-0.922-0.747-1.46-0.992H242.034z M216.653,10h4.109
	c-0.537,0.245-1.039,0.571-1.46,0.992c-0.93,0.93-1.47,2.22-1.47,3.54s0.54,2.6,1.47,3.53c0.421,0.425,0.922,0.753,1.458,1h-4.107
	V10z M221.663,29.062v47.073c0,9.08-2.499,13.55-5.01,15.753V29.062H221.663z M288.376,413.305h-56.608l-6.865-243.877
	c-0.054-1.323-1.362-31.786-8.25-46.564v-19.715c2.242-0.73,4.921-2.063,7.433-4.52c5.028-4.918,7.577-12.485,7.577-22.494V29.062
	h10.371v0.797c0,2.761,2.238,5,5,5c2.762,0,5-2.239,5-5v-0.797h14.186c0.785,13.177,4.75,23.18,11.832,29.761
	c5.393,5.011,11.385,6.837,15.525,7.49c0.504,10.249,1.061,22.531,1.688,37.342L288.376,413.305z"/>
</svg>