<?xml version="1.0" encoding="iso-8859-1"?>
<!-- Uploaded to: SVG Repo, www.svgrepo.com, Generator: SVG Repo Mixer Tools -->
<svg fill="#000000" height="800px" width="800px" version="1.1" id="Layer_1" xmlns="http://www.w3.org/2000/svg" xmlns:xlink="http://www.w3.org/1999/xlink" 
	 viewBox="0 0 512.853 512.853" xml:space="preserve">
<g transform="translate(1 1)">
	<g>
		<g>
			<path d="M435.111,289.133c-8.533-83.627-22.187-147.627-43.52-184.32l-0.853-0.853c-0.853-0.853-2.56-3.413-4.267-5.12
				c-5.12-3.413-8.533-7.68-11.947-11.947c-0.84-0.84-1.766-1.453-2.729-1.876c-0.582-0.582-1.149-1.149-1.538-1.538
				c-1.585-1.472-3.122-2.846-4.623-4.134c-5.893-5.132-11.411-8.915-16.554-10.857c-0.001-6.501-1.282-13.774-4.009-21.079
				c-0.074-0.207-0.152-0.413-0.229-0.619c-0.067-0.173-0.132-0.346-0.2-0.519c-1.146-2.987-2.557-5.964-4.253-8.871
				C327.591,13.507,299.431-1,255.057-1c-1.318,0-2.62,0.015-3.91,0.04c-0.501,0.01-0.991,0.029-1.487,0.042
				c-0.772,0.021-1.545,0.042-2.308,0.073c-0.631,0.025-1.252,0.059-1.876,0.091c-0.601,0.031-1.203,0.06-1.798,0.096
				c-0.714,0.043-1.418,0.095-2.122,0.146c-0.476,0.035-0.953,0.07-1.425,0.109c-0.785,0.064-1.562,0.136-2.335,0.211
				c-0.36,0.035-0.72,0.07-1.077,0.108c-0.856,0.089-1.705,0.184-2.546,0.286c-0.238,0.029-0.474,0.059-0.711,0.089
				c-0.943,0.118-1.877,0.244-2.801,0.378c-0.081,0.012-0.161,0.024-0.242,0.036c-10.711,1.578-20.142,4.231-28.314,7.844
				c-0.1,0.044-0.2,0.089-0.3,0.134c-0.683,0.305-1.36,0.616-2.025,0.935c-0.257,0.122-0.509,0.248-0.763,0.372
				c-0.509,0.25-1.017,0.501-1.515,0.759c-0.519,0.267-1.027,0.542-1.535,0.818c-0.227,0.124-0.459,0.245-0.684,0.371
				c-9.236,5.135-16.621,11.692-22.145,19.491c-8.784,11.713-11.908,24.678-12.082,36.748c-0.432,0.164-0.867,0.343-1.306,0.535
				c-5.978,2.272-12.233,7.111-19.892,14.771c-0.853,0.853-2.56,2.56-3.413,3.413c-0.267,0.267-0.481,0.533-0.674,0.8
				c-3.291,3.898-7.225,7.153-10.42,11.147c-1.707,2.56-3.413,4.267-4.267,5.12c-22.082,34.7-36.87,92.01-45.049,166.511
				c-0.067,0.244-0.128,0.491-0.178,0.742c-1.87,18.077-3.733,36.619-4.938,55.94c-0.014,0.202-0.026,0.405-0.04,0.607
				c-0.022,0.354-0.047,0.704-0.069,1.059c-3.748,54.719-4.173,109.693-3.487,159.141c0,3.912,0,7.105,0,10.24
				c0,0.285,0,0.569,0,0.853c0,0.896,0,1.788,0,2.56c0,0.699,0,1.301,0,1.707c0,4.267,4.267,8.533,8.533,8.533h34.133
				c3.413,0,6.827-1.707,7.68-5.12l22.625-54.613c1.25,1.158,2.525,2.281,3.828,3.363v38.45c0,9.387,7.68,17.067,17.067,17.067
				h187.733c9.387,0,17.067-7.68,17.067-17.067v-37.757c1.689-1.369,3.338-2.796,4.938-4.29l3.596,8.679v0.941
				c0,0.853,0,2.56,0.853,3.413l17.067,40.96c1.707,3.413,4.267,5.12,7.68,5.12h0.853h33.28h0.853c4.267,0,8.533-3.413,8.533-8.533
				c0-0.853,0-3.413,0-6.827C444.497,435.053,441.937,360.813,435.111,289.133z M104.871,493.933h-20.48c0-1.517,0-3.708,0-5.973
				c0-0.284,0-0.568,0-0.853c0-5.768,0-12.266,0-18.773h31.216L104.871,493.933z M83.794,451.267
				c-0.173-30.252,0.468-62.025,2.001-93.867h39.19c0.036,2.121,0.076,4.256,0.116,6.391c0.426,24.662,1.077,50.406,1.957,77.236
				l-4.294,10.24H83.794z M203.857,306.2c0,10.495-0.225,20.86-0.66,31.09c-0.061,1.011-0.12,2.02-0.193,3.043h-60.587
				c0-20.939,0-40.855,0-59.733h60.587C203.004,289.133,203.857,297.667,203.857,306.2z M186.84,457.881
				c-6.313-1.432-12.486-3.659-18.355-6.707c-0.036-0.019-0.072-0.039-0.109-0.058c-0.719-0.375-1.43-0.769-2.139-1.168
				c-0.314-0.178-0.629-0.354-0.941-0.536c-0.233-0.135-0.462-0.278-0.693-0.416c-7.751-4.656-14.721-10.757-20.479-18.208
				c-0.846-25.605-1.482-50.052-1.909-73.387h59.837C199.521,392.897,194.364,426.571,186.84,457.881z M141.797,263.533
				c0.572-45.629,2.201-85.031,4.887-118.613c1.706-22.176,3.412-40.088,4.265-47.775c5.931-5.85,10.955-9.963,13.88-11.44
				c20.471,46.123,33.884,108.644,37.816,177.828H141.797z M124.497,340.333H86.951c1.707-20.48,3.413-40.96,5.12-59.733h32.427
				C124.497,299.373,124.497,319.853,124.497,340.333z M220.884,311.669c0.026-1.813,0.04-3.634,0.04-5.469
				c0-10.782-0.006-20.869-0.634-30.889c-3.083-76.084-17.487-146.042-40.614-196.331c5.477-15.412,36.882-28.78,75.381-28.78
				s69.904,13.368,75.381,28.78c-22.397,48.703-36.612,115.854-40.287,189.151c-0.601,1.147-0.96,2.468-0.96,3.936
				c0,11.093,0,22.187,0,34.133c0,1.891,0.016,3.767,0.041,5.635c0.069,9.281,0.291,18.499,0.696,27.623
				c0.068,3.355,0.116,6.76,0.116,10.262c0,0.939,0.216,1.832,0.584,2.661c2.369,38.044,7.654,74.354,15.619,107.419H203.868
				C214.633,415.108,220.504,364.489,220.884,311.669z M420.604,340.333h-34.372c0.159-13.1,0.239-25.911,0.239-38.4
				c0-7.242-0.026-14.345-0.072-21.333h29.085C417.191,299.373,418.897,319.853,420.604,340.333z M366.844,430.787
				c-0.57,0.738-1.156,1.458-1.75,2.169c-10.837,12.016-25.144,20.341-40.917,24.284c-7.504-30.594-12.656-64.319-15.21-99.84
				h59.652C368.272,380.774,367.689,405.23,366.844,430.787z M346.509,85.91c3.409,2.082,8.295,6.011,13.508,11.224
				c0,0.853,0,0.853,0,1.707c0.853,4.267,0.853,8.533,1.707,14.507c1.707,16.213,3.413,36.693,4.267,60.587
				c1.357,27.147,2.308,57.002,2.748,89.6h-60.463C312.137,194.534,325.523,132.12,346.509,85.91z M307.111,305.347
				c0-8.318,0.138-16.571,0.406-24.747h61.034c0,18.88,0,38.799,0,59.733h-60.595C307.406,328.816,307.111,317.146,307.111,305.347z
				 M383.911,441.027c0.55-16.785,0.988-33.142,1.324-49.081c0.306-11.708,0.557-23.23,0.749-34.546h36.523
				c1.169,20.24,1.96,40.838,2.364,61.44c0.338,11.169,0.541,22.061,0.665,32.427h-37.33L383.911,441.027z M413.938,262.68h-27.714
				c-0.501-39.296-1.778-74.319-3.834-105.061c-0.629-12.179-1.445-23.162-2.324-32.927c-0.059-0.785-0.119-1.557-0.178-2.322
				C395.325,152.792,406.308,201.03,413.938,262.68z M325.884,45.933c0.93,1.704,1.744,3.438,2.453,5.183
				c0.063,0.277,0.107,0.544,0.107,0.79c-17.067-11.947-44.373-18.773-73.387-18.773c-29.767,0-56.138,6.784-74.055,18.657
				c0.243-0.593,0.498-1.183,0.766-1.771c1.416-2.784,2.934-5.568,5.022-8.352c0.642-0.938,1.321-1.85,2.032-2.742
				c11.818-14.106,31.64-22.189,62.327-22.816c0.139-0.003,0.274-0.008,0.413-0.01c1.15-0.021,2.314-0.032,3.494-0.032
				C293.457,16.067,315.644,27.16,325.884,45.933z M130.471,120.173c-0.043,0.858-0.086,1.724-0.129,2.59
				c-1.351,14.835-2.596,31.889-3.284,51.17c-1.343,27.187-2.155,57.028-2.441,89.6H93.439
				C101.302,200.557,113.261,150.851,130.471,120.173z M348.924,493.933H161.191v-27.212c3.198,1.63,6.489,3.073,9.863,4.322
				c0.074,0.028,0.147,0.056,0.222,0.084c0.769,0.282,1.543,0.553,2.32,0.815c0.098,0.033,0.194,0.068,0.292,0.101
				c9.489,3.165,19.574,4.824,29.971,4.824h103.253c14.851,0,29.068-3.379,41.813-9.711V493.933z M406.097,493.933l-10.24-25.6
				h29.82c0.046,9.234,0.047,17.847,0.047,25.6H406.097z"/>
			<path d="M161.191,203.8c-5.12,0-8.533,3.413-8.533,8.533c0,5.12,3.413,8.533,8.533,8.533h17.067c5.12,0,8.533-3.413,8.533-8.533
				c0-5.12-3.413-8.533-8.533-8.533H161.191z"/>
			<path d="M272.124,101.4h-34.133c-5.12,0-8.533,3.413-8.533,8.533s3.413,8.533,8.533,8.533h34.133c5.12,0,8.533-3.413,8.533-8.533
				S277.244,101.4,272.124,101.4z"/>
		</g>
	</g>
</g>
</svg>