<!DOCTYPE svg PUBLIC "-//W3C//DTD SVG 1.1//EN" "http://www.w3.org/Graphics/SVG/1.1/DTD/svg11.dtd">
<!-- Uploaded to: SVG Repo, www.svgrepo.com, Transformed by: SVG Repo Mixer Tools -->
<svg height="800px" width="800px" version="1.1" id="Capa_1" xmlns="http://www.w3.org/2000/svg" xmlns:xlink="http://www.w3.org/1999/xlink" viewBox="-16.13 -16.13 354.78 354.78" xml:space="preserve" fill="#000000">
<g id="SVGRepo_bgCarrier" stroke-width="0"/>
<g id="SVGRepo_tracerCarrier" stroke-linecap="round" stroke-linejoin="round"/>
<g id="SVGRepo_iconCarrier"> <path style="fill:#231F20;" d="M312.333,217.034c0.567-14.681-1.732-62.219-50.08-101.741c-16-13.08-26.866-26.568-36.454-38.468 c-9.905-12.294-19.028-23.603-31.433-30.9c1.856-1.909,3.005-4.509,3.005-7.375c0-2.563-0.915-4.918-2.436-6.753 c0.696-2.278,0.633-4.802-0.355-7.166c-0.958-2.294-2.651-4.118-4.741-5.245c-0.251-2.408-1.311-4.639-3.043-6.369 c-1.766-1.768-4.045-2.834-6.501-3.061c-1.119-2.1-2.946-3.838-5.314-4.811c-2.261-0.932-4.821-1.023-7.07-0.355 c-1.82-1.472-4.135-2.354-6.652-2.354c-2.56,0-4.91,0.912-6.744,2.43c-2.282-0.694-4.887-0.596-7.176,0.361 c-2.266,0.945-4.094,2.607-5.24,4.74c-2.409,0.251-4.642,1.311-6.379,3.048c-1.807,1.808-2.822,4.113-3.047,6.48 c-2.133,1.133-3.857,2.989-4.82,5.334c-0.957,2.331-1.019,4.812-0.345,7.056c-1.477,1.821-2.362,4.141-2.362,6.662 c0,2.867,1.148,5.468,3.005,7.377c-12.404,7.298-21.527,18.606-31.433,30.9c-9.588,11.899-20.454,25.388-36.454,38.468 c-48.347,39.521-50.647,87.057-50.08,101.739C4.1,220.632,0,227.242,0,234.808v64.613c0,11.391,9.268,20.658,20.659,20.658h9.497 c5.725,0,10.914-2.341,14.659-6.115c3.745,3.774,8.934,6.115,14.658,6.115h9.497c5.725,0,10.913-2.341,14.658-6.115 c3.745,3.774,8.935,6.115,14.659,6.115h9.497c5.725,0,10.913-2.341,14.658-6.115c3.745,3.774,8.934,6.115,14.658,6.115h9.498 c5.725,0,10.913-2.341,14.658-6.115c3.745,3.774,8.935,6.115,14.659,6.115h9.496c5.725,0,10.913-2.341,14.658-6.115 c3.745,3.774,8.934,6.115,14.659,6.115h9.497c5.725,0,10.914-2.341,14.659-6.115c3.745,3.774,8.934,6.115,14.658,6.115h9.497 c5.725,0,10.913-2.341,14.658-6.115c3.745,3.774,8.935,6.115,14.659,6.115h9.497c11.392,0,20.659-9.268,20.659-20.658v-64.613 C322.516,227.243,318.416,220.633,312.333,217.034z M25.661,188.096c6.45-24.527,20.646-45.896,42.197-63.512 c16.966-13.871,28.248-27.875,38.202-40.23c16.891-20.964,28.049-34.813,55.197-34.813s38.307,13.85,55.197,34.813 c9.954,12.355,21.236,26.359,38.202,40.23c21.551,17.616,35.747,38.984,42.197,63.512c2.927,11.131,3.504,20.423,3.501,26.054 h-7.996c-5.725,0-10.914,2.341-14.659,6.115c-3.745-3.774-8.934-6.115-14.658-6.115h-9.497c-5.725,0-10.913,2.341-14.658,6.115 c-3.745-3.774-8.935-6.115-14.659-6.115h-9.501c-5.723,0-10.91,2.341-14.655,6.114c-3.745-3.775-8.934-6.116-14.658-6.116h-9.496 c-5.725,0-10.914,2.341-14.659,6.116c-3.745-3.775-8.934-6.116-14.658-6.116h-9.498c-5.725,0-10.913,2.341-14.658,6.116 c-3.745-3.775-8.933-6.116-14.658-6.116h-9.497c-5.725,0-10.914,2.341-14.659,6.116c-3.745-3.775-8.934-6.116-14.658-6.116h-9.497 c-5.725,0-10.913,2.341-14.658,6.116c-3.745-3.775-8.935-6.116-14.659-6.116H22.16C22.158,208.516,22.735,199.225,25.661,188.096z M310.516,299.421c0,4.774-3.885,8.658-8.659,8.658h-9.497c-4.775,0-8.659-3.884-8.659-8.658c0-3.314-2.686-6-6-6s-6,2.686-6,6 c0,4.774-3.884,8.658-8.658,8.658h-9.497c-4.774,0-8.658-3.884-8.658-8.658c0-3.314-2.687-6-6-6c-3.314,0-6,2.686-6,6 c0,4.774-3.885,8.658-8.659,8.658h-9.497c-4.775,0-8.659-3.884-8.659-8.658c0-3.314-2.687-6-6-6c-3.314,0-6,2.686-6,6 c0,4.774-3.884,8.658-8.658,8.658h-9.496c-4.774,0-8.659-3.884-8.659-8.658c0-3.314-2.686-6-6-6c-3.313,0-6,2.686-6,6 c0,4.774-3.884,8.658-8.658,8.658h-9.498c-4.774,0-8.658-3.884-8.658-8.658c0-3.314-2.687-6-6-6c-3.313,0-6,2.686-6,6 c0,4.774-3.884,8.658-8.658,8.658h-9.497c-4.774,0-8.659-3.884-8.659-8.658c0-3.314-2.687-6-6-6s-6,2.686-6,6 c0,4.774-3.884,8.658-8.658,8.658h-9.497c-4.774,0-8.658-3.884-8.658-8.658c0-3.314-2.687-6-6-6s-6,2.686-6,6 c0,4.774-3.885,8.658-8.659,8.658h-9.497c-4.774,0-8.659-3.884-8.659-8.658v-64.613c0-4.775,3.885-8.66,8.659-8.66h9.497 c4.774,0,8.659,3.885,8.659,8.66c0,3.313,2.687,6,6,6s6-2.687,6-6c0-4.775,3.884-8.66,8.658-8.66h9.497 c4.774,0,8.658,3.885,8.658,8.66c0,3.313,2.687,6,6,6s6-2.687,6-6c0-4.775,3.885-8.66,8.659-8.66h9.497 c4.774,0,8.658,3.885,8.658,8.66c0,3.313,2.687,6,6,6c3.313,0,6-2.687,6-6c0-4.775,3.884-8.66,8.658-8.66h9.498 c4.774,0,8.658,3.885,8.658,8.66c0,3.313,2.687,6,6,6c3.314,0,6-2.687,6-6c0-4.775,3.885-8.66,8.659-8.66h9.496 c4.774,0,8.658,3.885,8.658,8.66c0,3.313,2.686,6,6,6c3.313,0,6-2.687,6-6c0-4.774,3.883-8.658,8.659-8.658h9.497 c4.774,0,8.659,3.884,8.659,8.658c0,3.313,2.686,6,6,6c3.313,0,6-2.687,6-6c0-4.774,3.884-8.658,8.658-8.658h9.497 c4.774,0,8.658,3.884,8.658,8.658c0,3.313,2.686,6,6,6s6-2.687,6-6c0-4.774,3.885-8.658,8.659-8.658h9.497 c4.774,0,8.659,3.884,8.659,8.658V299.421z"/> </g>
</svg>