<!DOCTYPE svg PUBLIC "-//W3C//DTD SVG 1.1//EN" "http://www.w3.org/Graphics/SVG/1.1/DTD/svg11.dtd">
<!-- Uploaded to: SVG Repo, www.svgrepo.com, Transformed by: SVG Repo Mixer Tools -->
<svg fill="#000000" height="800px" width="800px" version="1.1" id="Capa_1" xmlns="http://www.w3.org/2000/svg" xmlns:xlink="http://www.w3.org/1999/xlink" viewBox="-4.48 -4.48 456.62 456.62" xml:space="preserve" stroke="#000000" stroke-width="2.2383">
<g id="SVGRepo_bgCarrier" stroke-width="0"/>
<g id="SVGRepo_tracerCarrier" stroke-linecap="round" stroke-linejoin="round"/>
<g id="SVGRepo_iconCarrier"> <path d="M447.156,335.461l-42.479-87.327l-18.935-120.26c-1.97-12.504-11.148-22.485-23.384-25.428 c-0.003-0.001-0.097-0.023-0.101-0.024l-0.154-0.037c-90.455-21.711-186.08-21.712-276.525-0.005l-0.19,0.046 c-12.29,2.961-21.502,12.95-23.47,25.448L42.983,248.134L0.504,335.461c-0.688,1.413-0.671,3.066,0.045,4.465 c0.716,1.399,2.048,2.379,3.596,2.648c72.887,12.657,146.285,18.985,219.685,18.985s146.801-6.329,219.687-18.985 c1.548-0.269,2.88-1.25,3.596-2.648C447.827,338.527,447.844,336.874,447.156,335.461z M396.921,255.049l31.552,64.865 c-135.832,22.121-273.455,22.121-409.286,0l31.552-64.865C165.608,269.111,282.049,269.111,396.921,255.049z M53.552,245.307 l5.369-34.098c54.605,6.364,110.059,9.6,164.909,9.6c54.851,0,110.304-3.235,164.909-9.6l5.369,34.098 C281.089,259.012,166.571,259.012,53.552,245.307z M356.817,111.424c-87.352,9.57-178.62,9.57-265.965-0.002 C177.917,91.013,269.73,91.011,356.817,111.424z M71.797,129.429c0.568-3.609,2.032-6.905,4.167-9.663 c48.403,5.889,98.138,8.841,147.877,8.841c49.737,0,99.47-2.951,147.876-8.839c2.119,2.755,3.577,6.051,4.146,9.663l11.319,71.893 c-54.094,6.289-109.021,9.486-163.353,9.486c-54.332,0-109.259-3.197-163.353-9.486L71.797,129.429z M12.411,333.843l2.209-4.542 c69.422,11.471,139.315,17.221,209.21,17.221s139.788-5.75,209.209-17.221l2.209,4.542 C294.913,357.467,152.745,357.467,12.411,333.843z"/> </g>
</svg>