<?xml version="1.0" encoding="iso-8859-1"?>
<!-- Uploaded to: SVG Repo, www.svgrepo.com, Generator: SVG Repo Mixer Tools -->
<svg fill="#000000" height="800px" width="800px" version="1.1" id="Layer_1" xmlns="http://www.w3.org/2000/svg" xmlns:xlink="http://www.w3.org/1999/xlink" 
	 viewBox="0 0 512 512" xml:space="preserve">
<g>
	<g>
		<path d="M464.278,56.386c-1.076-1.118-2.287-2.051-3.586-2.813V8.017c0-4.427-3.589-8.017-8.017-8.017H59.322
			c-4.427,0-8.017,3.589-8.017,8.017v45.557c-1.299,0.762-2.51,1.694-3.586,2.813c-3.152,3.276-4.792,7.582-4.618,12.124
			l16.761,435.779c0.166,4.304,3.703,7.709,8.01,7.709h162.472c4.312,0,7.852-3.411,8.011-7.721l8.258-222.963
			c0.182-4.906,4.17-8.75,9.08-8.75h0.609c4.909,0,8.897,3.843,9.08,8.749l8.258,222.963c0.159,4.31,3.698,7.721,8.011,7.721
			h162.472c4.308,0,7.845-3.404,8.011-7.709l16.761-435.78C469.07,63.968,467.43,59.662,464.278,56.386z M152.85,16.033h69.478
			v35.273H152.85V16.033z M67.339,16.033h69.478v35.273H67.339V16.033z M59.123,67.895c-0.002-0.062-0.009-0.227,0.149-0.391
			c0.158-0.164,0.323-0.164,0.385-0.164h60.058v43.29c0,16.88-6.969,32.156-18.171,43.126v-34.574
			c0-9.136-7.432-16.568-16.568-16.568H60.458L59.123,67.895z M61.075,118.647h23.9c0.295,0,0.534,0.239,0.534,0.534v45.862
			c-6.857,3.314-14.435,5.356-22.425,5.85L61.075,118.647z M222.619,495.967H75.588l-0.699-18.171h148.404L222.619,495.967z
			 M230.88,277.769c-0.149,0.967-0.25,1.952-0.287,2.954l-6.705,181.039H74.273L63.701,186.923
			c40.11-2.279,72.047-35.621,72.047-76.292V67.34h95.132V277.769z M375.18,16.033h69.478v35.273H375.18V16.033z M238.362,51.307
			V16.033h120.785v35.273H238.362z M265.084,67.34v128.802c0,5.01-4.076,9.086-9.086,9.086h-9.086V67.34H265.084z M436.41,495.967
			H289.378l-0.673-18.171h148.404L436.41,495.967z M437.724,461.762H288.11l-6.705-181.039
			c-0.502-13.564-11.529-24.189-25.102-24.189h-0.609c-3.091,0-6.048,0.557-8.781,1.568v-36.842h9.086
			c13.851,0,25.119-11.268,25.119-25.119V67.34h95.132v43.29c0,40.671,31.936,74.013,72.047,76.292L437.724,461.762z
			 M452.874,67.895l-3.961,102.999c-31.554-1.951-56.63-28.227-56.63-60.263V67.34h60.058c0.062,0,0.227,0,0.385,0.164
			C452.882,67.668,452.877,67.833,452.874,67.895z"/>
	</g>
</g>
<g>
	<g>
		<path d="M256.084,25.653h-0.086c-4.427,0-7.974,3.589-7.974,8.017c0,4.427,3.632,8.017,8.059,8.017
			c4.427,0,8.017-3.589,8.017-8.017C264.101,29.243,260.512,25.653,256.084,25.653z"/>
	</g>
</g>
</svg>