<?xml version="1.0" encoding="iso-8859-1"?>
<!-- Uploaded to: SVG Repo, www.svgrepo.com, Generator: SVG Repo Mixer Tools -->
<svg fill="#000000" height="800px" width="800px" version="1.1" id="Layer_1" xmlns="http://www.w3.org/2000/svg" xmlns:xlink="http://www.w3.org/1999/xlink" 
	 viewBox="0 0 512 512" xml:space="preserve">
<g>
	<g>
		<path d="M509.918,403.41l-15.035-48.865v-58.649c0-116.731-90.651-212.683-205.252-221.166c0.017-0.383,0.037-0.765,0.037-1.15
			c0-13.85-11.268-25.117-25.117-25.117H247.45c-13.85,0-25.117,11.268-25.117,25.117c0,0.385,0.02,0.767,0.037,1.15
			C107.769,83.215,17.118,179.166,17.118,295.897v58.649L2.082,403.41c-4.736,15.39-1.28,31.866,9.242,44.072
			c10.442,12.114,26.091,17.916,41.862,15.524c59.195-8.985,129.327-13.733,202.814-13.733s143.62,4.749,202.814,13.733
			c2.343,0.356,4.681,0.53,7.002,0.53c13.3,0,25.968-5.74,34.86-16.055C511.199,435.276,514.654,418.801,509.918,403.41z
			 M478.851,295.896v49.404c-18.251-4.671-38.751-8.705-60.923-12.039v-37.365c0-58.664-15.301-113.924-43.087-155.602
			c-10.431-15.647-22.17-28.703-34.863-38.981C420.698,129.134,478.851,205.848,478.851,295.896z M441.833,353.55l18.28,58.863
			c-60.287-8.755-130.694-13.375-204.113-13.375s-143.822,4.62-204.113,13.375l18.28-58.863
			c52.422-9.923,117.635-15.435,185.833-15.435S389.412,343.626,441.833,353.55z M247.45,64.495h17.101
			c5.01,0,9.085,4.075,9.085,9.085c0,0.182-0.025,0.36-0.035,0.541c-0.167,0-0.332-0.006-0.499-0.006h-5.7H244.6h-5.7
			c-0.167,0-0.332,0.006-0.499,0.006c-0.012-0.181-0.036-0.359-0.036-0.541C238.365,68.571,242.44,64.495,247.45,64.495z
			 M244.599,90.147h22.801c74.161,0,134.494,92.299,134.494,205.749v35.113c-44.286-5.794-94.29-8.927-145.895-8.927
			s-101.609,3.133-145.895,8.927v-35.113C110.106,182.446,170.44,90.147,244.599,90.147z M33.15,295.897
			c0-90.05,58.153-166.764,138.873-194.583c-12.693,10.279-24.432,23.336-34.863,38.981
			c-27.785,41.677-43.087,96.937-43.087,155.602v37.365c-22.172,3.336-42.672,7.369-60.923,12.039V295.897z M488.533,437.014
			c-6.819,7.91-17.032,11.7-27.313,10.141c-59.977-9.103-130.941-13.915-205.22-13.915s-145.244,4.812-205.22,13.915
			c-10.282,1.562-20.493-2.231-27.313-10.141c-6.899-8.002-9.165-18.803-6.061-28.889l14.098-45.82
			c6.587-1.784,13.516-3.475,20.733-5.077l-17.465,56.238c-1.591,5.17,0.475,9.063,1.848,10.921
			c2.72,3.685,6.956,5.485,11.433,4.802c60.862-9.238,132.77-14.119,207.947-14.119s147.084,4.882,207.942,14.119
			c0.657,0.1,1.313,0.151,1.945,0.151c3.707,0,7.167-1.805,9.49-4.952c1.373-1.859,3.439-5.748,1.844-10.939l-17.459-56.221
			c7.217,1.603,14.147,3.294,20.733,5.077l14.098,45.82C497.699,418.212,495.433,429.011,488.533,437.014z"/>
	</g>
</g>
<g>
	<g>
		<path d="M281.652,245.127h-51.304c-13.85,0-25.117,11.268-25.117,25.117s11.268,25.117,25.117,25.117h51.304
			c13.85,0,25.117-11.268,25.117-25.117S295.502,245.127,281.652,245.127z M281.652,279.329h-51.304
			c-5.01,0-9.085-4.075-9.085-9.085c0-5.01,4.075-9.085,9.085-9.085h51.304c5.01,0,9.085,4.075,9.085,9.085
			S286.662,279.329,281.652,279.329z"/>
	</g>
</g>
</svg>