<?xml version="1.0" encoding="iso-8859-1"?>
<!-- Uploaded to: SVG Repo, www.svgrepo.com, Generator: SVG Repo Mixer Tools -->
<!DOCTYPE svg PUBLIC "-//W3C//DTD SVG 1.1//EN" "http://www.w3.org/Graphics/SVG/1.1/DTD/svg11.dtd">
<svg fill="#000000" height="800px" width="800px" version="1.1" id="Capa_1" xmlns="http://www.w3.org/2000/svg" xmlns:xlink="http://www.w3.org/1999/xlink" 
	 viewBox="0 0 426.09 426.09" xml:space="preserve">
<g>
	<path d="M314.248,413.76c-0.225-1.237-22.573-123.847-24.979-137.683c-2.467-14.188-5.972-60.608-3.594-95.084
		c0.155-2.248,0.332-4.695,0.522-7.316c2.916-40.235,8.301-114.76-13.899-155.72V5c0-2.762-2.238-5-5-5H158.792
		c-2.762,0-5,2.238-5,5v12.956c-22.202,40.961-16.817,115.485-13.901,155.722c0.191,2.621,0.367,5.067,0.523,7.315
		c2.378,34.476-1.127,80.896-3.594,95.084c-2.406,13.836-24.752,136.445-24.977,137.683c-0.413,2.267,0.776,4.522,2.88,5.462
		c0.628,0.28,15.723,6.868,45.707,6.868c29.836,0,47.255-6.483,47.982-6.759c2.018-0.767,3.317-2.741,3.221-4.898
		c-0.058-1.291-5.783-129.589-6.385-170.479c-0.351-23.85,4.067-67.873,7.798-100.339c3.731,32.465,8.148,76.486,7.798,100.339
		c-0.602,40.89-6.327,169.189-6.385,170.479c-0.097,2.157,1.202,4.132,3.221,4.898c0.727,0.275,18.145,6.759,47.983,6.759
		c29.984,0,45.079-6.588,45.707-6.868C313.472,418.282,314.661,416.026,314.248,413.76z M262.298,14.161h-44.254V10h44.254V14.161z
		 M208.044,10v4.161h-44.252V10H208.044z M195.248,244.1c0.544,37.021,5.262,145.175,6.223,166.945
		c-6.172,1.752-20.507,5.045-41.042,5.045c-19.522,0-32.196-2.976-37.984-4.735c3.969-21.78,22.069-121.157,24.227-133.564
		c2.538-14.592,6.15-62.228,3.719-97.484c-0.156-2.26-0.334-4.718-0.525-7.351c-2.607-35.969-7.97-109.97,11.932-148.794h14.979
		l-3.41,22.904c-0.407,2.731,1.477,5.275,4.209,5.682c0.25,0.037,0.498,0.056,0.742,0.056c2.437,0,4.57-1.783,4.939-4.265
		l3.629-24.377h21.16v78.152C207.055,109.728,194.651,203.551,195.248,244.1z M265.661,416.09c-20.541,0-34.878-3.294-41.044-5.044
		c0.961-21.771,5.679-129.925,6.223-166.946c0.597-40.549-11.806-134.372-12.796-141.786V24.161h21.161l3.628,24.377
		c0.369,2.482,2.503,4.265,4.939,4.265c0.244,0,0.492-0.019,0.742-0.056c2.73-0.406,4.615-2.95,4.209-5.682l-3.408-22.904h14.978
		c19.9,38.824,14.536,112.824,11.93,148.793c-0.191,2.634-0.369,5.092-0.525,7.352c-2.432,35.257,1.181,82.893,3.719,97.484
		c2.157,12.408,20.259,111.783,24.228,133.563C297.849,413.116,285.177,416.09,265.661,416.09z"/>
</g>
</svg>