<?xml version="1.0" encoding="iso-8859-1"?>
<!-- Uploaded to: SVG Repo, www.svgrepo.com, Generator: SVG Repo Mixer Tools -->
<!DOCTYPE svg PUBLIC "-//W3C//DTD SVG 1.1//EN" "http://www.w3.org/Graphics/SVG/1.1/DTD/svg11.dtd">
<svg fill="#000000" height="800px" width="800px" version="1.1" id="Capa_1" xmlns="http://www.w3.org/2000/svg" xmlns:xlink="http://www.w3.org/1999/xlink" 
	 viewBox="0 0 418.331 418.331" xml:space="preserve">
<g>
	<g>
		<path d="M140.767,369.27c-2.743,0-4.977-2.213-4.999-4.961l-0.094-12.535c-0.02-2.762,2.203-5.016,4.964-5.035
			c0.012,0,0.025,0,0.037,0c2.745,0,4.979,2.215,4.999,4.965l0.094,12.525c0.021,2.762-2.199,5.018-4.96,5.041
			C140.794,369.27,140.78,369.27,140.767,369.27z M140.537,335.854c-2.748,0-4.983-2.219-4.999-4.971
			c-0.024-4.039-0.047-8.225-0.069-12.535c-0.014-2.76,2.213-5.01,4.975-5.025c0.008,0,0.018,0,0.026,0
			c2.749,0,4.985,2.223,4.999,4.975c0.022,4.309,0.045,8.49,0.069,12.527c0.016,2.762-2.209,5.014-4.97,5.029
			C140.557,335.854,140.547,335.854,140.537,335.854z M140.374,302.44c-2.753,0-4.989-2.227-4.999-4.98
			c-0.016-4.107-0.03-8.289-0.043-12.535c-0.008-2.762,2.224-5.006,4.985-5.014c0.005,0,0.01,0,0.016,0
			c2.754,0,4.991,2.228,4.999,4.984c0.013,4.242,0.027,8.422,0.043,12.525c0.01,2.762-2.22,5.01-4.981,5.02
			C140.387,302.44,140.381,302.44,140.374,302.44z M140.285,269.028c-2.758,0-4.996-2.234-5-4.992
			c-0.006-4.143-0.011-8.322-0.012-12.527c-0.001-2.762,2.237-5,4.998-5.002c0,0,0.001,0,0.001,0c2.761,0,4.999,2.238,5,4.998
			c0.002,4.201,0.006,8.377,0.012,12.516c0.004,2.762-2.231,5.004-4.992,5.008C140.29,269.028,140.287,269.028,140.285,269.028z
			 M140.28,235.624c-0.002,0-0.004,0-0.006,0c-2.762-0.002-4.997-2.244-4.994-5.006c0.005-4.174,0.013-8.355,0.023-12.537
			c0.007-2.758,2.244-4.988,5-4.988c0.004,0,0.008,0,0.012,0c2.762,0.006,4.995,2.25,4.988,5.012
			c-0.01,4.178-0.018,8.357-0.023,12.527C145.277,233.389,143.038,235.624,140.28,235.624z M140.38,202.196
			c-0.008,0-0.017,0-0.025,0c-2.761-0.014-4.989-2.264-4.976-5.025c0.021-4.201,0.044-8.384,0.07-12.539
			c0.018-2.751,2.253-4.968,4.999-4.968c0.011,0,0.021,0,0.032,0c2.761,0.018,4.986,2.27,4.968,5.031
			c-0.026,4.15-0.05,8.328-0.07,12.524C145.366,199.974,143.13,202.196,140.38,202.196z M140.618,168.777c-0.017,0-0.033,0-0.049,0
			c-2.761-0.026-4.978-2.287-4.952-5.048c0.041-4.236,0.087-8.422,0.137-12.544c0.033-2.74,2.265-4.939,4.999-4.939
			c0.02,0,0.04,0,0.061,0.001c2.761,0.033,4.973,2.299,4.939,5.06c-0.05,4.114-0.095,8.292-0.136,12.519
			C145.591,166.571,143.357,168.777,140.618,168.777z M141.057,135.36c-0.029,0-0.058,0-0.087,0
			c-2.761-0.048-4.961-2.324-4.914-5.086c0.074-4.291,0.153-8.48,0.239-12.551c0.058-2.76,2.352-4.951,5.105-4.893
			c2.761,0.059,4.952,2.344,4.893,5.105c-0.086,4.056-0.165,8.23-0.238,12.51C146.008,133.178,143.778,135.36,141.057,135.36z
			 M141.832,101.948c-0.053,0-0.105-0.001-0.158-0.002c-2.76-0.086-4.928-2.393-4.843-5.152c0.137-4.43,0.286-8.632,0.445-12.574
			c0.112-2.76,2.428-4.882,5.199-4.794c2.759,0.112,4.905,2.439,4.794,5.198c-0.159,3.913-0.306,8.082-0.442,12.479
			C146.742,99.81,144.521,101.948,141.832,101.948z"/>
	</g>
	<g>
		<path d="M277.562,369.262c-0.014,0-0.026,0-0.04,0c-2.761-0.023-4.981-2.279-4.96-5.041l0.094-12.531
			c0.02-2.748,2.255-4.965,4.999-4.965c0.013,0,0.024,0,0.036,0c2.762,0.022,4.984,2.275,4.965,5.037l-0.094,12.539
			C282.54,367.049,280.305,369.262,277.562,369.262z M277.793,335.832c-0.01,0-0.02,0-0.03,0c-2.761-0.016-4.986-2.268-4.97-5.029
			c0.023-4.039,0.047-8.221,0.068-12.531c0.014-2.752,2.25-4.975,5-4.975c0.008,0,0.017,0,0.025,0
			c2.762,0.016,4.988,2.266,4.975,5.025c-0.022,4.313-0.045,8.498-0.068,12.541C282.775,333.614,280.541,335.832,277.793,335.832z
			 M277.955,302.407c-0.006,0-0.012,0-0.02,0c-2.761-0.012-4.99-2.258-4.98-5.02c0.016-4.105,0.029-8.287,0.043-12.531
			c0.008-2.756,2.245-4.984,4.999-4.984c0.005,0,0.011,0,0.016,0c2.761,0.008,4.993,2.254,4.985,5.016
			c-0.014,4.246-0.027,8.43-0.043,12.539C282.944,300.18,280.708,302.407,277.955,302.407z M278.045,268.981
			c-0.002,0-0.005,0-0.008,0c-2.762-0.004-4.996-2.246-4.992-5.008c0.006-4.141,0.011-8.316,0.012-12.52
			c0.002-2.762,2.24-4.998,5-4.998c0.001,0,0.002,0,0.002,0c2.762,0,5,2.24,4.998,5.002c-0.001,4.207-0.006,8.387-0.012,12.531
			C283.041,266.747,280.802,268.981,278.045,268.981z M278.05,235.565c-2.759,0-4.997-2.234-5-4.992
			c-0.005-4.172-0.013-8.354-0.023-12.531c-0.007-2.762,2.227-5.006,4.987-5.014c0.004,0,0.009,0,0.014,0
			c2.756,0,4.992,2.23,4.999,4.988c0.011,4.184,0.019,8.367,0.023,12.543c0.003,2.762-2.232,5.004-4.993,5.006
			C278.054,235.565,278.051,235.565,278.05,235.565z M277.949,202.124c-2.75,0-4.985-2.223-4.999-4.975
			c-0.021-4.199-0.044-8.379-0.07-12.529c-0.017-2.762,2.207-5.015,4.968-5.032c0.012,0,0.021,0,0.033,0
			c2.746,0,4.982,2.218,4.999,4.968c0.026,4.156,0.05,8.342,0.07,12.545c0.013,2.761-2.214,5.01-4.976,5.023
			C277.967,202.124,277.958,202.124,277.949,202.124z M277.712,168.693c-2.739,0-4.972-2.206-4.999-4.952
			c-0.041-4.229-0.086-8.408-0.136-12.523c-0.034-2.762,2.178-5.027,4.939-5.061c2.77-0.033,5.027,2.178,5.06,4.939
			c0.05,4.123,0.096,8.311,0.137,12.549c0.026,2.761-2.19,5.022-4.951,5.048C277.745,168.693,277.728,168.693,277.712,168.693z
			 M277.273,135.263c-2.723,0-4.951-2.182-4.998-4.914c-0.072-4.28-0.152-8.457-0.238-12.515c-0.059-2.761,2.133-5.046,4.892-5.104
			c2.784-0.018,5.047,2.133,5.105,4.893c0.086,4.071,0.166,8.262,0.238,12.556c0.048,2.761-2.152,5.038-4.913,5.085
			C277.332,135.263,277.302,135.263,277.273,135.263z M276.498,101.839c-2.689,0-4.91-2.139-4.994-4.846
			c-0.137-4.398-0.283-8.57-0.442-12.482c-0.112-2.76,2.034-5.088,4.794-5.199c2.748-0.108,5.086,2.034,5.198,4.793
			c0.159,3.943,0.308,8.147,0.445,12.579c0.085,2.761-2.083,5.067-4.843,5.152C276.603,101.837,276.55,101.839,276.498,101.839z"/>
	</g>
	<g>
		<path d="M221.925,21.534c-1.319,0-2.601-0.529-3.53-1.459c-0.94-0.93-1.47-2.221-1.47-3.541c0-1.319,0.53-2.609,1.47-3.54
			c0.93-0.93,2.211-1.46,3.53-1.46c1.32,0,2.61,0.53,3.54,1.46c0.93,0.93,1.46,2.22,1.46,3.54c0,1.32-0.53,2.611-1.46,3.541
			C224.535,21.005,223.245,21.534,221.925,21.534z"/>
	</g>
	<path d="M288.551,27.513V5c0-2.761-2.239-5-5-5H134.778c-2.761,0-5,2.239-5,5v22.518c-1.464,6.397-13.52,61.731-13.52,146.933
		v238.88c0,2.76,2.239,5,5,5h75.885c2.762,0,5-2.24,5-5c0-1.709,0.097-143.822,7.023-235.941
		c6.925,92.119,7.021,234.232,7.021,235.941c0,2.76,2.239,5,5,5h75.887c2.761,0,5-2.24,5-5V174.45
		C302.073,89.23,290.01,33.89,288.551,27.513z M139.778,10h27.914v13.07h-27.914V10z M138.801,33.07h17.645v13.326
		c0,0.597-0.116,1.263-0.961,2.093c-2.789,2.739-10.503,4.555-20.366,4.931C136.632,43.877,137.979,36.993,138.801,33.07z
		 M192.154,408.331h-65.896v-12.191h65.955C192.181,401.276,192.163,405.411,192.154,408.331z M204.165,129.067
		c-9.267,61.471-11.392,198.648-11.878,257.072h-46.328l-0.01-1.043c-0.026-2.744-2.26-4.953-4.999-4.953h-0.048
		c-2.762,0.027-4.979,2.287-4.953,5.047l0.009,0.949h-9.7V174.45c0-47.666,3.805-85.77,7.357-110.969
		c1.578-0.029,3.193-0.096,4.819-0.201c0.077,5.406,4.86,5.373,4.99,5.373c2.586,0,4.777-1.992,4.98-4.613
		c0.055-0.717,0.112-1.402,0.169-2.068c5.6-1.167,10.646-3.132,13.922-6.35c2.586-2.541,3.953-5.731,3.953-9.226V33.07h37.719
		V129.067z M204.165,23.07h-26.473V10h26.473V23.07z M283.213,53.422c-9.867-0.377-17.58-2.192-20.369-4.933
		c-0.845-0.83-0.961-1.495-0.961-2.092V33.07h17.647C280.351,36.993,281.699,43.878,283.213,53.422z M250.638,10h27.913v13.07
		h-27.913V10z M214.165,10h26.474v13.07h-26.474V10z M214.165,33.07h8.374v39.768c0,7.701-1.754,13.344-5.072,16.317
		c-1.075,0.964-2.225,1.571-3.302,1.96V33.07z M292.073,408.331h-65.897c-0.01-2.92-0.027-7.055-0.061-12.191h65.958V408.331z
		 M292.073,386.139h-9.701l0.009-0.949c0.026-2.76-2.191-5.02-4.953-5.047h-0.047c-2.74,0-4.974,2.209-5,4.953l-0.01,1.043h-46.329
		c-0.486-58.426-2.611-195.601-11.877-257.072v-27.629c2.888-0.516,6.466-1.77,9.778-4.66c5.704-4.979,8.596-13.032,8.596-23.939
		V33.07h19.344v13.326c0,3.494,1.367,6.685,3.953,9.226c3.277,3.221,8.328,5.186,13.933,6.352c0.054,0.629,0.107,1.271,0.159,1.943
		c0.202,2.621,2.393,4.613,4.978,4.613c1.215,0,4.936-0.378,4.987-5.25c1.627,0.105,3.244,0.172,4.823,0.201
		c3.552,25.198,7.356,63.303,7.356,110.969V386.139z"/>
</g>
</svg>