<!DOCTYPE svg PUBLIC "-//W3C//DTD SVG 1.1//EN" "http://www.w3.org/Graphics/SVG/1.1/DTD/svg11.dtd">
<!-- Uploaded to: SVG Repo, www.svgrepo.com, Transformed by: SVG Repo Mixer Tools -->
<svg fill="#000000" width="800px" height="800px" viewBox="0 0 32 32" id="template" xmlns="http://www.w3.org/2000/svg" stroke="#000000" stroke-width="0.22400000000000003">
<g id="SVGRepo_bgCarrier" stroke-width="0"/>
<g id="SVGRepo_tracerCarrier" stroke-linecap="round" stroke-linejoin="round"/>
<g id="SVGRepo_iconCarrier">
<title/>
<path d="M24.976,17.612,27.152,14a5.64,5.64,0,0,0-2.062-7.7l-3.672-2.12a5.632,5.632,0,0,0-7.695,2.062L12.271,8.762A28.9,28.9,0,0,0,6.214,7.4a.263.263,0,0,0-.048-.006q-1.347-.154-2.785-.2A1.689,1.689,0,0,0,1.66,8.917c-.3,3.157,3.988,9.95,13.239,11.79.235.515.468,1.047.7,1.6,1.285,3.055,3.188,5.018,5.655,5.834a8.761,8.761,0,0,0,2.767.43,13.392,13.392,0,0,0,6.158-1.684.355.355,0,0,0,.155-.421A31.859,31.859,0,0,0,24.976,17.612ZM14.336,6.6a4.925,4.925,0,0,1,6.727-1.8L24.735,6.92a4.93,4.93,0,0,1,1.807,6.722l-2.055,3.409a31.14,31.14,0,0,0-2.716-2.727,10.043,10.043,0,0,0,1.2.08A3.093,3.093,0,0,0,25,13.869a1.23,1.23,0,0,0,.371-1.132,1.18,1.18,0,0,0-.946-1.066,4.785,4.785,0,0,0-3.1,1.037c.229-1.337.421-3.42-.371-4.328A1.379,1.379,0,0,0,19.7,7.924a1.36,1.36,0,0,0-1.246,1.043,5.35,5.35,0,0,0,.781,3.356,27.637,27.637,0,0,0-6.284-3.314Zm7.022,6.947c.738-.607,2.169-1.351,2.916-1.186.168.036.346.121.4.472a.521.521,0,0,1-.15.511C24.019,13.806,22.509,13.737,21.358,13.55Zm-.825-.471c-.734-.943-1.66-2.938-1.4-3.931a.653.653,0,0,1,.639-.52,1.143,1.143,0,0,1,.127-.007.645.645,0,0,1,.518.224C21.062,9.583,20.792,11.774,20.533,13.079ZM2.366,8.984c.068-.717.409-1.08,1.006-1.08q1.365.038,2.646.183C6.583,8.5,10.6,11.656,14.525,19.9,6.161,18.023,2.1,11.78,2.366,8.984ZM21.474,27.467c-2.263-.75-4.019-2.579-5.221-5.435C12.813,13.858,9.1,9.838,7.356,8.268a27.127,27.127,0,0,1,12.9,5.706c-.412,1.385-2.941,3.778-3.937,4.628a.354.354,0,1,0,.46.539A21.249,21.249,0,0,0,20.5,15.079a55.291,55.291,0,0,0,3.073,9.013.353.353,0,0,0,.324.212.36.36,0,0,0,.143-.03.355.355,0,0,0,.182-.467,54.463,54.463,0,0,1-3.066-9.073,32.306,32.306,0,0,1,8.4,11.684C28.564,26.931,24.906,28.605,21.474,27.467Z"/>
</g>
</svg>