<?xml version="1.0" encoding="iso-8859-1"?>
<!-- Uploaded to: SVG Repo, www.svgrepo.com, Generator: SVG Repo Mixer Tools -->
<svg fill="#000000" height="800px" width="800px" version="1.1" id="Layer_1" xmlns="http://www.w3.org/2000/svg" xmlns:xlink="http://www.w3.org/1999/xlink" 
	 viewBox="0 0 512 512" xml:space="preserve">
<g transform="translate(-1)">
	<g>
		<path d="M476.52,393.987c-0.039-0.645-0.079-1.163-0.116-1.548L467.5,223.27v-3.842C467.5,96.553,375.144,0,257.214,0
			C141.071,0,49.734,93.651,46.994,213.864l-9.41,178.798c0-0.141-0.054,0.484-0.104,1.322c-0.401,6.716,0.038,15.243,1.94,24.941
			c2.812,14.333,8.37,28.472,17.314,41.7c2.816,4.165,5.943,8.193,9.39,12.068C88.585,497.944,121.994,512,157.324,512h199.351
			c35.33,0,68.739-14.056,91.202-39.309c3.447-3.873,6.574-7.901,9.391-12.066c8.944-13.226,14.502-27.363,17.314-41.694
			C476.484,409.234,476.922,400.706,476.52,393.987z M454.8,329.873c-1.238,0.522-2.383,1.316-3.326,2.396
			c-23.257,26.608-78.008,43.75-157.687,49.901v-25.598c0-5.049-4.093-9.143-9.143-9.143h-0.002h-54.855h-0.002
			c-5.049,0-9.143,4.093-9.143,9.143v26.781c-81.628-3.645-130.72-20.232-157.686-51.084c-1.053-1.204-2.352-2.064-3.757-2.573
			l5.331-101.124h19.464c5.416,33.522,41.783,51.217,107.066,65.872c43.118,9.689,87.83,9.698,131.841,0.008
			c64.723-14.231,101.606-32.239,107.095-65.88h19.472L454.8,329.873z M238.927,392.886c0-0.012,0.002-0.023,0.002-0.036v-27.136
			h36.57v54.857h-36.571V392.886z M101.786,222.972v-3.543c0-94.094,66.768-164.571,155.429-164.571
			c85.771,0,151.05,65.96,155.214,155.45v9.121c0,26.681-31.819,43.612-93.456,57.164c-41.409,9.117-83.41,9.108-123.904,0.009
			C135.685,263.271,104.489,247.521,101.786,222.972z M257.214,18.286c104.722,0,187.403,83.466,191.815,192h-18.295
			c-4.24-99.424-77.456-173.714-173.52-173.714s-169.28,74.29-173.52,173.714H65.4C69.811,101.752,152.492,18.286,257.214,18.286z
			 M456.638,415.411c-2.361,12.032-7.021,23.886-14.518,34.971c-2.367,3.5-4.997,6.888-7.905,10.155
			c-18.884,21.23-47.283,33.178-77.541,33.178H157.324c-30.258,0-58.656-11.948-77.539-33.176
			c-2.907-3.268-5.537-6.656-7.904-10.156c-7.497-11.087-12.157-22.944-14.518-34.978c-1.584-8.075-1.944-15.075-1.631-20.331
			c0.031-0.517,0.058-0.827,0.067-0.914l2.155-40.875c31.999,29.557,83.673,44.926,162.686,48.37v28.06
			c0,5.049,4.093,9.143,9.143,9.143h54.857c5.049,0,9.143-4.093,9.143-9.143v-29.207c76.368-5.742,131.905-21.254,162.251-47.162
			l2.12,40.278c0.054,0.625,0.081,0.936,0.112,1.454C458.581,400.336,458.222,407.336,456.638,415.411z"/>
	</g>
</g>
</svg>